HIERARCHY
ROOT Hips
{
	OFFSET 51.262798 -15.275616 94.202499
	CHANNELS 6 Xposition Yposition Zposition Xrotation Yrotation Zrotation
	JOINT spine
	{
		OFFSET 0.000000 -0.448574 7.800591
		CHANNELS 3 Xrotation Yrotation Zrotation
		JOINT spine1
		{
			OFFSET 0.000000 -0.000002 10.136398
			CHANNELS 3 Xrotation Yrotation Zrotation
			JOINT spine2
			{
				OFFSET 0.000000 -0.000002 9.712509
				CHANNELS 3 Xrotation Yrotation Zrotation
				JOINT Neck
				{
					OFFSET 0.000000 -1.188875 24.936104
					CHANNELS 3 Xrotation Yrotation Zrotation
					JOINT Head
					{
						OFFSET 0.000000 0.000000 7.533844
						CHANNELS 3 Xrotation Yrotation Zrotation
						End Site
						{
							OFFSET 0.000000 6.014017 18.236099
						}
					}
				}
				JOINT RightShoulder
				{
					OFFSET -4.089649 0.569455 10.488792
					CHANNELS 3 Xrotation Yrotation Zrotation
					JOINT RightArm
					{
						OFFSET 0.000000 -0.000002 13.757004
						CHANNELS 3 Xrotation Yrotation Zrotation
						JOINT RightArmRoll
						{
							OFFSET 0.000000 -0.000001 6.944778
							CHANNELS 3 Xrotation Yrotation Zrotation
							JOINT RightForeArm
							{
								OFFSET 0.000000 -0.000004 20.227692
								CHANNELS 3 Xrotation Yrotation Zrotation
								JOINT RightForeArmRoll
								{
									OFFSET 0.000000 -0.000001 7.793121
									CHANNELS 3 Xrotation Yrotation Zrotation
									JOINT RightHand
									{
										OFFSET 0.000000 -0.000003 15.639099
										CHANNELS 3 Xrotation Yrotation Zrotation
										End Site
										{
											OFFSET 0.000000 0.000000 0.100006
										}
									}
								}
							}
						}
					}
				}
				JOINT LeftShoulder
				{
					OFFSET 4.089649 0.569455 10.488792
					CHANNELS 3 Xrotation Yrotation Zrotation
					JOINT LeftArm
					{
						OFFSET 0.000000 -0.000002 13.757004
						CHANNELS 3 Xrotation Yrotation Zrotation
						JOINT LeftArmRoll
						{
							OFFSET 0.000000 -0.000001 6.944778
							CHANNELS 3 Xrotation Yrotation Zrotation
							JOINT LeftForeArm
							{
								OFFSET 0.000000 -0.000004 20.227692
								CHANNELS 3 Xrotation Yrotation Zrotation
								JOINT LeftForeArmRoll
								{
									OFFSET 0.000000 -0.000001 7.793121
									CHANNELS 3 Xrotation Yrotation Zrotation
									JOINT LeftHand
									{
										OFFSET 0.000000 -0.000003 15.639099
										CHANNELS 3 Xrotation Yrotation Zrotation
										End Site
										{
											OFFSET 0.000000 0.000000 0.100006
										}
									}
								}
							}
						}
					}
				}
			}
		}
	}
	JOINT RightUpLeg
	{
		OFFSET -6.914158 1.063580 -1.267883
		CHANNELS 3 Xrotation Yrotation Zrotation
		JOINT RightUpLegRoll
		{
			OFFSET 0.000000 -0.000003 18.337799
			CHANNELS 3 Xrotation Yrotation Zrotation
			JOINT RightLeg
			{
				OFFSET 0.000000 0.000004 -22.708496
				CHANNELS 3 Xrotation Yrotation Zrotation
				JOINT RightLegRoll
				{
					OFFSET 0.000000 -0.000004 22.782799
					CHANNELS 3 Xrotation Yrotation Zrotation
					JOINT RightFoot
					{
						OFFSET 0.000000 -0.000003 18.962898
						CHANNELS 3 Xrotation Yrotation Zrotation
						JOINT RightToeBase
						{
							OFFSET 0.000000 -0.000003 15.852005
							CHANNELS 3 Xrotation Yrotation Zrotation
							End Site
							{
								OFFSET 0.006718 0.884891 7.677017
							}
						}
					}
				}
			}
		}
	}
	JOINT LeftUpLeg
	{
		OFFSET 6.914158 1.063580 -1.267883
		CHANNELS 3 Xrotation Yrotation Zrotation
		JOINT LeftUpLegRoll
		{
			OFFSET 0.000000 -0.000003 18.337898
			CHANNELS 3 Xrotation Yrotation Zrotation
			JOINT LeftLeg
			{
				OFFSET 0.000000 -0.000004 22.708397
				CHANNELS 3 Xrotation Yrotation Zrotation
				JOINT LeftLegRoll
				{
					OFFSET 0.000000 -0.000004 22.993393
					CHANNELS 3 Xrotation Yrotation Zrotation
					JOINT LeftFoot
					{
						OFFSET 0.000000 -0.000003 18.752197
						CHANNELS 3 Xrotation Yrotation Zrotation
						JOINT LeftToeBase
						{
							OFFSET 0.000000 -0.000003 15.852005
							CHANNELS 3 Xrotation Yrotation Zrotation
							End Site
							{
								OFFSET -0.030113 0.884892 7.677017
							}
						}
					}
				}
			}
		}
	}
}
MOTION
Frames: 6
Frame Time: 0.041667
51.619305 -16.180113 94.031197 -7.403304 0.891920 -0.586858 -1.323872 0.679056 0.143566 1.353260 1.356002 0.302796 2.998504 1.359637 0.297505 10.048994 -6.644249 -2.022043 -3.054429 -8.877822 -0.909427 -16.445361 -26.608014 -18.789010 -119.615395 -183.900986 -120.842507 0.000002 0.000005 0.000001 86.191646 0.661541 -2.779509 0.000002 0.000009 -3.004810 -5.000424 -7.998969 0.000170 -8.760275 64.684384 10.718332 3.129554 106.506282 -19.312819 0.000001 -0.000002 -0.000001 21.220841 3.333546 0.577779 -0.000003 -0.000018 3.000002 -5.000318 7.999440 -0.000102 2.811733 -178.982225 -1.110046 -179.999991 0.000005 -1.050000 167.984637 0.596636 -0.760021 -0.000004 0.000002 0.180342 71.632613 5.894023 4.705422 25.456957 -7.355616 0.000001 6.471545 -179.512125 6.294800 -0.000005 -0.000004 -1.528430 -10.432350 5.190180 0.594340 -0.000005 0.000001 -0.283716 74.338611 -8.040231 1.728250 25.456957 7.355613 -0.000001 
51.613804 -16.172617 94.031708 -7.385087 0.901171 -0.575470 -1.326702 0.676271 0.143787 1.347605 1.350426 0.302923 2.992855 1.354052 0.297042 10.046903 -6.623300 -2.027217 -3.101960 -8.875355 -0.919904 -16.433898 -26.650268 -18.773473 -119.685036 -183.822657 -120.500615 0.000001 0.000002 0.000002 85.941012 0.596454 -2.679896 0.000004 0.000011 -3.004810 -5.000423 -7.998969 0.000172 -8.725726 64.693899 10.679396 3.087252 106.501651 -19.253622 0.000001 -0.000002 -0.000002 21.225354 3.342537 0.576642 -0.000000 -0.000020 3.000001 -5.000319 7.999440 -0.000103 2.807447 -178.997197 -1.119917 -179.999991 0.000005 -1.050000 168.014143 0.594751 -0.758734 -0.000004 0.000002 0.179302 71.617867 5.895343 4.700615 25.456957 -7.355617 0.000001 6.448004 -179.528012 6.281962 -0.000005 -0.000004 -1.528030 -10.439142 5.193963 0.595962 -0.000004 0.000001 -0.284072 74.340735 -8.039987 1.727938 25.456955 7.355614 -0.000001 
51.606102 -16.163513 94.030907 -7.366183 0.910410 -0.563878 -1.329850 0.673396 0.144015 1.341331 1.344672 0.302960 2.986579 1.348297 0.296364 10.047377 -6.601787 -2.031246 -3.150059 -8.869723 -0.929660 -16.421931 -26.692960 -18.757194 -119.756985 -183.740544 -120.154325 0.000004 -0.000000 0.000001 85.687824 0.531173 -2.580232 0.000001 0.000012 -3.004808 -5.000427 -7.998970 0.000173 -8.692287 64.702819 10.641724 3.052038 106.497129 -19.201221 0.000001 -0.000003 -0.000005 21.231484 3.352079 0.575421 -0.000002 -0.000019 3.000001 -5.000320 7.999440 -0.000101 2.803306 -179.011185 -1.129644 -179.999991 0.000005 -1.050000 168.045152 0.592854 -0.758474 -0.000003 0.000002 0.178227 71.602533 5.896776 4.695460 25.456960 -7.355617 0.000002 6.425429 -179.543885 6.268756 -0.000005 -0.000004 -1.527570 -10.443629 5.198156 0.597531 -0.000004 0.000001 -0.284414 74.342019 -8.039829 1.727550 25.456952 7.355614 -0.000001 
51.606205 -16.157915 94.031502 -7.346713 0.919591 -0.552164 -1.333249 0.670454 0.144243 1.334534 1.338787 0.302910 2.979787 1.342393 0.295502 10.049777 -6.579791 -2.034302 -3.198296 -8.861248 -0.938771 -16.409676 -26.735995 -18.740335 -119.831134 -183.655454 -119.804359 0.000000 0.000005 0.000003 85.431733 0.465772 -2.480730 0.000003 0.000010 -3.004808 -5.000422 -7.998971 0.000172 -8.660047 64.711268 10.605363 3.022614 106.493707 -19.154354 0.000001 -0.000002 -0.000004 21.238721 3.361967 0.574140 -0.000001 -0.000020 3.000002 -5.000317 7.999439 -0.000102 2.799181 -179.025159 -1.139269 -179.999991 0.000005 -1.050000 168.076967 0.589997 -0.757427 -0.000004 0.000002 0.177128 71.586892 5.898226 4.690221 25.456957 -7.355617 0.000001 6.403567 -179.558775 6.255478 -0.000005 -0.000004 -1.527060 -10.446216 5.202620 0.599034 -0.000005 0.000001 -0.284738 74.342832 -8.039661 1.727332 25.456953 7.355614 -0.000001 
51.616405 -16.162815 94.031998 -7.326777 0.928666 -0.540405 -1.336849 0.667467 0.144460 1.327339 1.332812 0.302777 2.972591 1.336410 0.294482 10.053478 -6.557394 -2.036568 -3.246213 -8.850262 -0.947316 -16.397373 -26.779421 -18.723536 -119.906853 -183.568123 -119.451403 0.000002 -0.000001 -0.000000 85.172336 0.400388 -2.381539 0.000001 0.000011 -3.004812 -5.000425 -7.998973 0.000172 -8.628801 64.718747 10.570099 2.998031 106.490354 -19.112421 0.000001 -0.000002 -0.000002 21.246565 3.371963 0.572833 -0.000003 -0.000020 3.000001 -5.000316 7.999440 -0.000103 2.794950 -179.039148 -1.148764 -179.999991 0.000005 -1.050000 168.109370 0.588102 -0.757164 -0.000003 0.000002 0.176018 71.571128 5.899674 4.684888 25.456957 -7.355616 0.000001 6.382174 -179.574648 6.242087 -0.000005 -0.000004 -1.526519 -10.447500 5.207221 0.600483 -0.000004 0.000001 -0.285047 74.343221 -8.039536 1.727079 25.456952 7.355614 -0.000001 
51.612003 -16.153315 94.031998 -7.306517 0.937589 -0.528680 -1.340598 0.664459 0.144660 1.319864 1.326798 0.302564 2.965110 1.330377 0.293335 10.057845 -6.534651 -2.038229 -3.293372 -8.837115 -0.955375 -16.385202 -26.823034 -18.706932 -119.984048 -183.479399 -119.096178 0.000002 -0.000001 0.000000 84.909285 0.335090 -2.282886 0.000001 0.000011 -3.004811 -5.000428 -7.998971 0.000177 -8.598509 64.725051 10.535856 2.976989 106.488045 -19.074073 0.000001 -0.000003 -0.000002 21.254507 3.381852 0.571531 -0.000002 -0.000020 3.000001 -5.000321 7.999438 -0.000102 2.790489 -179.053122 -1.158120 -179.999991 0.000005 -1.050997 168.141758 0.586220 -0.755912 -0.000004 0.000002 0.174905 71.555473 5.901081 4.679648 25.456957 -7.355618 0.000001 6.361000 -179.590522 6.228908 -0.000005 -0.000004 -1.525971 -10.447978 5.211827 0.601877 -0.000004 0.000002 -0.285345 74.343378 -8.039391 1.726609 25.456950 7.355613 -0.000001 
